<?xml version="1.0" encoding="UTF-8" standalone="no"?>
<svg width="91px" height="82px" viewBox="0 0 91 82" version="1.1" xmlns="http://www.w3.org/2000/svg" xmlns:xlink="http://www.w3.org/1999/xlink">
    <!-- Generator: Sketch 47.1 (45422) - http://www.bohemiancoding.com/sketch -->
    <title>Group 6 Copy</title>
    <desc>Created with Sketch.</desc>
    <defs></defs>
    <g id="Page-1" stroke="none" stroke-width="1" fill="none" fill-rule="evenodd">
        <g id="Group-6-Copy">
            <g id="Group-3" fill-rule="nonzero" fill="#FFFFFF">
                <path d="M33.8991889,13.942677 L33.8886108,13.942551 L33.9110979,8 L43.8033497,14 L43.8886108,14 L43.8886108,14.0517139 L43.9053419,14.0618619 L43.8886108,14.0616626 L43.8886108,19 L43.8886108,44 L43.8886108,49 L43.8543195,49 L43.8786174,57 L37.190605,51.8551657 L33.0488623,49.0940039 L9.04886231,33.0940039 L5.7933664,30.9236733 L0,27.3786011 L3.90323189,24.7132191 L3.88861084,24.6920998 L7.9995718,21.8460499 L20.9995718,12.8460499 L25.1105328,10 L25.1475671,10.053494 L25.1475671,22.1369672 L18.0311692,27.0637042 L33.8886108,37.635332 L33.8886108,19 L33.8886108,14 L33.8986229,14 L33.8991889,13.942677 Z M43.8719194,10.9610539 L33.8886108,4.97971314 L43.8804859,0 L43.8719194,10.9610539 Z" id="Combined-Shape-Copy-4"></path>
                <path d="M46,14.4876239 L46,19 L46,44 L46,49 L46.0242979,49 L46,57 L53.4840305,51.2428192 L56.7072534,49.0940039 L80.7072534,33.0940039 L84.122019,30.8174935 L84.1582031,30.8828735 L90.0787964,27.2599487 L85.3048706,24 L85.2850719,24.0178721 L82.1479953,21.8460499 L69.1479953,12.8460499 L65.0370343,10 L65,10.053494 L65,22.1369672 L71.9243652,26.9307585 L56,37.547002 L56,19 L56,15.0346522 L56.0078632,15.034658 L56,14.2383651 L56,14 L55.9976462,14 L55.9970812,13.9427851 L56.0167311,13.942551 L55.994244,8 L55.9647477,8.01789056 L55.96182,4.99772012 L55.991875,4.97971314 L55.961788,4.96471849 L55.9617533,4.9289057 L54.9928589,4.45840204 L54.9231831,4.44710249 L46,0 L46.0023449,3.00038028 L46,3 L46,7.97620686 L46,14.4876239 Z" id="Combined-Shape-Copy-5"></path>
            </g>
            <path d="M15.328,66.84 C15.6720017,66.84 15.9839986,66.8879995 16.264,66.984 C16.5440014,67.0800005 16.783999,67.2179991 16.984,67.398 C17.184001,67.5780009 17.3379995,67.7959987 17.446,68.052 C17.5540005,68.3080013 17.608,68.5919984 17.608,68.904 L17.608,78.936 C17.608,79.5760032 17.406002,80.0799982 17.002,80.448 C16.597998,80.8160018 16.0320036,81 15.304,81 L13.24,81 C13.1599996,81 13.1000002,80.9760002 13.06,80.928 C13.0199998,80.8799998 13,80.8200004 13,80.748 L13,67.092 C13,67.0199996 13.0199998,66.9600002 13.06,66.912 C13.1000002,66.8639998 13.1599996,66.84 13.24,66.84 L15.328,66.84 Z M15.304,79.656 C15.5440012,79.656 15.7199994,79.5880007 15.832,79.452 C15.9440006,79.3159993 16,79.144001 16,78.936 L16,68.904 C16,68.695999 15.9460005,68.5240007 15.838,68.388 C15.7299995,68.2519993 15.5520012,68.184 15.304,68.184 L14.608,68.184 L14.608,79.656 L15.304,79.656 Z M27.052,66.84 C27.1240004,66.84 27.1839998,66.8599998 27.232,66.9 C27.2800002,66.9400002 27.304,66.9999996 27.304,67.08 L27.304,67.488 C27.304,67.696001 27.2480006,67.8639994 27.136,67.992 C27.0239994,68.1200006 26.8760009,68.184 26.692,68.184 L25.216,68.184 L25.216,73.332 L26.812,73.332 C26.8840004,73.332 26.9439998,73.3519998 26.992,73.392 C27.0400002,73.4320002 27.064,73.4919996 27.064,73.572 L27.064,73.98 C27.064,74.188001 27.0080006,74.3559994 26.896,74.484 C26.7839994,74.6120006 26.6360009,74.676 26.452,74.676 L25.216,74.676 L25.216,79.656 L26.692,79.656 C26.8760009,79.656 27.0239994,79.7199994 27.136,79.848 C27.2480006,79.9760006 27.304,80.143999 27.304,80.352 L27.304,80.76 C27.304,80.8400004 27.2800002,80.8999998 27.232,80.94 C27.1839998,80.9800002 27.1240004,81 27.052,81 L23.848,81 C23.7679996,81 23.7080002,80.9760002 23.668,80.928 C23.6279998,80.8799998 23.608,80.8200004 23.608,80.748 L23.608,67.092 C23.608,67.0199996 23.6279998,66.9600002 23.668,66.912 C23.7080002,66.8639998 23.7679996,66.84 23.848,66.84 L27.052,66.84 Z M35.656,66.84 C35.9520015,66.84 36.1499995,66.8979994 36.25,67.014 C36.3500005,67.1300006 36.3880001,67.2799991 36.364,67.464 L34.408,79.656 L35.932,79.656 C36.1160009,79.656 36.2639994,79.7199994 36.376,79.848 C36.4880006,79.9760006 36.544,80.143999 36.544,80.352 L36.544,80.76 C36.544,80.8400004 36.5200002,80.8999998 36.472,80.94 C36.4239998,80.9800002 36.3640004,81 36.292,81 L32.968,81 C32.8879996,81 32.8260002,80.9760002 32.782,80.928 C32.7379998,80.8799998 32.72,80.8200004 32.728,80.748 L34.624,68.184 L33.484,68.184 C33.2999991,68.184 33.1520006,68.1200006 33.04,67.992 C32.9279994,67.8639994 32.872,67.696001 32.872,67.488 L32.872,67.08 C32.872,66.9999996 32.8959998,66.9380002 32.944,66.894 C32.9920002,66.8499998 33.0519996,66.832 33.124,66.84 L35.656,66.84 Z M42.592,67.452 C42.592,67.2679991 42.6559994,67.1200006 42.784,67.008 C42.9120006,66.8959994 43.079999,66.84 43.288,66.84 L43.96,66.84 C44.0400004,66.84 44.0999998,66.8639998 44.14,66.912 C44.1800002,66.9600002 44.2,67.0199996 44.2,67.092 L44.2,80.568 C44.2,80.6880006 44.1580004,80.7899996 44.074,80.874 C43.9899996,80.9580004 43.8880006,81 43.768,81 L43.024,81 C42.9039994,81 42.8020004,80.9580004 42.718,80.874 C42.6339996,80.7899996 42.592,80.6880006 42.592,80.568 L42.592,67.452 Z M54.568,74.484 C54.6480004,74.484 54.7079998,74.5079998 54.748,74.556 C54.7880002,74.6040002 54.808,74.6639996 54.808,74.736 L54.808,79.128 C54.808,79.7680032 54.606002,80.2719982 54.202,80.64 C53.797998,81.0080018 53.2320036,81.192 52.504,81.192 C52.1519982,81.192 51.8360014,81.1440005 51.556,81.048 C51.2759986,80.9519995 51.034001,80.8140009 50.83,80.634 C50.625999,80.4539991 50.4700005,80.2380013 50.362,79.986 C50.2539995,79.7339987 50.2,79.4480016 50.2,79.128 L50.2,68.712 C50.2,68.0719968 50.401998,67.5680018 50.806,67.2 C51.210002,66.8319982 51.7759964,66.648 52.504,66.648 C52.8480017,66.648 53.1619986,66.6959995 53.446,66.792 C53.7300014,66.8880005 53.973999,67.0259991 54.178,67.206 C54.382001,67.3860009 54.5379995,67.6019987 54.646,67.854 C54.7540005,68.1060013 54.808,68.3919984 54.808,68.712 L54.808,73.26 C54.808,73.3320004 54.7880002,73.3919998 54.748,73.44 C54.7079998,73.4880002 54.6480004,73.512 54.568,73.512 L53.896,73.512 C53.6639988,73.512 53.4900006,73.4460007 53.374,73.314 C53.2579994,73.1819993 53.2,73.012001 53.2,72.804 L53.2,68.712 C53.2,68.4959989 53.1440006,68.3220007 53.032,68.19 C52.9199994,68.0579993 52.7440012,67.992 52.504,67.992 C52.2719988,67.992 52.0980006,68.0579993 51.982,68.19 C51.8659994,68.3220007 51.808,68.4959989 51.808,68.712 L51.808,79.128 C51.808,79.3440011 51.8639994,79.5179993 51.976,79.65 C52.0880006,79.7820007 52.2639988,79.848 52.504,79.848 C52.7360012,79.848 52.9099994,79.7820007 53.026,79.65 C53.1420006,79.5179993 53.2,79.3440011 53.2,79.128 L53.2,75.828 C52.7199976,75.828 52.48,75.5960023 52.48,75.132 L52.48,74.724 C52.48,74.6439996 52.5039998,74.5840002 52.552,74.544 C52.6000002,74.5039998 52.6599996,74.484 52.732,74.484 L54.568,74.484 Z M65.176,66.84 C65.2560004,66.84 65.3159998,66.8639998 65.356,66.912 C65.3960002,66.9600002 65.416,67.0199996 65.416,67.092 L65.416,80.748 C65.416,80.8200004 65.3960002,80.8799998 65.356,80.928 C65.3159998,80.9760002 65.2560004,81 65.176,81 L64.504,81 C64.295999,81 64.1360006,80.9500005 64.024,80.85 C63.9119994,80.7499995 63.8440001,80.6160008 63.82,80.448 C63.82,80.3519995 63.7900003,80.1600014 63.73,79.872 C63.6699997,79.5839986 63.5940005,79.238002 63.502,78.834 C63.4099995,78.429998 63.3080006,77.9860024 63.196,77.502 C63.0839994,77.0179976 62.9720006,76.5240025 62.86,76.02 C62.7479994,75.5159975 62.6420005,75.0200024 62.542,74.532 C62.4419995,74.0439976 62.3600003,73.600002 62.296,73.2 L62.416,80.292 C62.424,80.500001 62.3680006,80.6699993 62.248,80.802 C62.1279994,80.9340007 61.9520012,81 61.72,81 L61.048,81 C60.9679996,81 60.9080002,80.9760002 60.868,80.928 C60.8279998,80.8799998 60.808,80.8200004 60.808,80.748 L60.808,67.092 C60.808,67.0199996 60.8279998,66.9600002 60.868,66.912 C60.9080002,66.8639998 60.9679996,66.84 61.048,66.84 L61.72,66.84 C61.920001,66.84 62.0819994,66.8939995 62.206,67.002 C62.3300006,67.1100005 62.3999999,67.2519991 62.416,67.428 C62.4320001,67.5560006 62.4679997,67.7859983 62.524,68.118 C62.5800003,68.4500017 62.6519996,68.8399978 62.74,69.288 C62.8280004,69.7360022 62.9239995,70.2239974 63.028,70.752 C63.1320005,71.2800026 63.2379995,71.8059974 63.346,72.33 C63.4540005,72.8540026 63.5579995,73.3519976 63.658,73.824 C63.7580005,74.2960024 63.8479996,74.7039983 63.928,75.048 L63.808,67.452 C63.808,67.2679991 63.8719994,67.1200006 64,67.008 C64.1280006,66.8959994 64.295999,66.84 64.504,66.84 L65.176,66.84 Z M75.112,71.796 C74.8799988,71.796 74.7060006,71.7300007 74.59,71.598 C74.4739994,71.4659993 74.416,71.296001 74.416,71.088 L74.416,68.712 C74.416,68.4959989 74.3580006,68.3220007 74.242,68.19 C74.1259994,68.0579993 73.9520012,67.992 73.72,67.992 C73.4799988,67.992 73.3040006,68.0579993 73.192,68.19 C73.0799994,68.3220007 73.024,68.4959989 73.024,68.712 C73.024,69.3600032 73.0659996,69.9199976 73.15,70.392 C73.2340004,70.8640024 73.3479993,71.2799982 73.492,71.64 C73.6360007,72.0000018 73.7979991,72.3239986 73.978,72.612 C74.1580009,72.9000014 74.3399991,73.1879986 74.524,73.476 C74.7080009,73.7640014 74.8899991,74.0699984 75.07,74.394 C75.2500009,74.7180016 75.4119993,75.0979978 75.556,75.534 C75.7000007,75.9700022 75.8139996,76.4779971 75.898,77.058 C75.9820004,77.6380029 76.024,78.327996 76.024,79.128 C76.024,79.4480016 75.9700005,79.7339987 75.862,79.986 C75.7539995,80.2380013 75.598001,80.4539991 75.394,80.634 C75.189999,80.8140009 74.9460014,80.9519995 74.662,81.048 C74.3779986,81.1440005 74.0640017,81.192 73.72,81.192 C72.9919964,81.192 72.426002,81.0080018 72.022,80.64 C71.617998,80.2719982 71.416,79.7680032 71.416,79.128 L71.416,76.176 C71.416,76.1039996 71.4359998,76.0440002 71.476,75.996 C71.5160002,75.9479998 71.5759996,75.924 71.656,75.924 L72.328,75.924 C72.5600012,75.924 72.7339994,75.9899993 72.85,76.122 C72.9660006,76.2540007 73.024,76.423999 73.024,76.632 L73.024,79.128 C73.024,79.3440011 73.0819994,79.5179993 73.198,79.65 C73.3140006,79.7820007 73.4879988,79.848 73.72,79.848 C73.9600012,79.848 74.1359994,79.7820007 74.248,79.65 C74.3600006,79.5179993 74.416,79.3440011 74.416,79.128 C74.416,78.3599962 74.3740004,77.7040027 74.29,77.16 C74.2059996,76.6159973 74.0920007,76.146002 73.948,75.75 C73.8039993,75.353998 73.6420009,75.0100015 73.462,74.718 C73.2819991,74.4259985 73.1000009,74.1460013 72.916,73.878 C72.7319991,73.6099987 72.5500009,73.3320014 72.37,73.044 C72.1899991,72.7559986 72.0280007,72.416002 71.884,72.024 C71.7399993,71.631998 71.6260004,71.1720026 71.542,70.644 C71.4579996,70.1159974 71.416,69.4720038 71.416,68.712 C71.416,68.3919984 71.4699995,68.1060013 71.578,67.854 C71.6860005,67.6019987 71.841999,67.3860009 72.046,67.206 C72.250001,67.0259991 72.4919986,66.8880005 72.772,66.792 C73.0520014,66.6959995 73.3679982,66.648 73.72,66.648 C74.4480036,66.648 75.013998,66.8319982 75.418,67.2 C75.822002,67.5680018 76.024,68.0719968 76.024,68.712 L76.024,71.544 C76.024,71.6160004 76.0040002,71.6759998 75.964,71.724 C75.9239998,71.7720002 75.8640004,71.796 75.784,71.796 L75.112,71.796 Z" id="dezigns" fill="#00DED4"></path>
        </g>
    </g>
</svg>